<svg width="220" height="31" viewBox="0 0 220 31" fill="none" xmlns="http://www.w3.org/2000/svg">
<path d="M26.1085 22.5549C26.1085 23.4902 25.987 24.3344 25.7441 25.0874C25.5133 25.8284 25.2036 26.4843 24.8149 27.0551C24.4262 27.626 23.9707 28.1119 23.4484 28.5127C22.9262 28.9135 22.3856 29.2415 21.8269 29.4965C21.2682 29.7516 20.6973 29.9399 20.1143 30.0613C19.5434 30.1828 19.0029 30.2435 18.4928 30.2435H0.218634V25.5065H18.4928C19.4037 25.5065 20.1082 25.2393 20.6062 24.7048C21.1164 24.1704 21.3714 23.4538 21.3714 22.5549C21.3714 22.1177 21.3046 21.7168 21.171 21.3524C21.0374 20.9881 20.8431 20.6722 20.588 20.405C20.3451 20.1378 20.0414 19.9313 19.677 19.7856C19.3248 19.6398 18.93 19.5669 18.4928 19.5669H7.59752C6.8323 19.5669 6.00635 19.4333 5.11967 19.1661C4.23299 18.8867 3.40704 18.4434 2.64182 17.8361C1.88875 17.2288 1.25714 16.4332 0.746998 15.4493C0.248999 14.4655 0 13.263 0 11.8419C0 10.4208 0.248999 9.22435 0.746998 8.25265C1.25714 7.2688 1.88875 6.47321 2.64182 5.8659C3.40704 5.24644 4.23299 4.8031 5.11967 4.53588C6.00635 4.25651 6.8323 4.11683 7.59752 4.11683H23.7217V8.85389H7.59752C6.69869 8.85389 5.9942 9.12718 5.48406 9.67377C4.98606 10.2204 4.73706 10.9431 4.73706 11.8419C4.73706 12.7529 4.98606 13.4756 5.48406 14.01C5.9942 14.5323 6.69869 14.7934 7.59752 14.7934H18.5292C19.0393 14.8056 19.5798 14.8785 20.1507 15.0121C20.7216 15.1335 21.2864 15.3279 21.8451 15.5951C22.416 15.8623 22.9565 16.2024 23.4667 16.6154C23.9768 17.0162 24.4262 17.5021 24.8149 18.0729C25.2157 18.6438 25.5315 19.2997 25.7623 20.0406C25.9931 20.7816 26.1085 21.6197 26.1085 22.5549Z" fill="white"/>
<path d="M57.4642 19.6763C57.4642 21.2674 57.1909 22.731 56.6443 24.0671C56.0977 25.4032 55.3386 26.5571 54.3669 27.5288C53.3952 28.5005 52.2413 29.2597 50.9052 29.8063C49.5812 30.3407 48.1358 30.6079 46.5689 30.6079H40.1557C38.5888 30.6079 37.1373 30.3407 35.8012 29.8063C34.4651 29.2597 33.3112 28.5005 32.3395 27.5288C31.3678 26.5571 30.6026 25.4032 30.0439 24.0671C29.4973 22.731 29.224 21.2674 29.224 19.6763V14.6841C29.224 13.1051 29.4973 11.6475 30.0439 10.3114C30.6026 8.96321 31.3678 7.80931 32.3395 6.84975C33.3112 5.87805 34.4651 5.1189 35.8012 4.57232C37.1373 4.02573 38.5888 3.75244 40.1557 3.75244H46.5689C48.1358 3.75244 49.5812 4.02573 50.9052 4.57232C52.2413 5.1189 53.3952 5.87805 54.3669 6.84975C55.3386 7.80931 56.0977 8.96321 56.6443 10.3114C57.1909 11.6475 57.4642 13.1051 57.4642 14.6841V19.6763ZM52.7271 14.6841C52.7271 13.7489 52.5753 12.9047 52.2716 12.1516C51.9801 11.3864 51.5611 10.7366 51.0145 10.2021C50.4801 9.65555 49.8302 9.2365 49.065 8.94499C48.3119 8.64133 47.4799 8.4895 46.5689 8.4895H40.1557C39.2326 8.4895 38.3884 8.64133 37.6232 8.94499C36.8701 9.2365 36.2203 9.65555 35.6737 10.2021C35.1271 10.7366 34.702 11.3864 34.3983 12.1516C34.1068 12.9047 33.9611 13.7489 33.9611 14.6841V19.6763C33.9611 20.6115 34.1068 21.4618 34.3983 22.227C34.702 22.98 35.1271 23.6299 35.6737 24.1765C36.2203 24.7109 36.8701 25.1299 37.6232 25.4336C38.3884 25.7251 39.2326 25.8709 40.1557 25.8709H46.5325C47.4556 25.8709 48.2937 25.7251 49.0468 25.4336C49.812 25.1299 50.4679 24.7109 51.0145 24.1765C51.5611 23.6299 51.9801 22.98 52.2716 22.227C52.5753 21.4618 52.7271 20.6115 52.7271 19.6763V14.6841Z" fill="white"/>
<path d="M85.5404 30.2435H68.4505C68.0133 30.2435 67.5395 30.195 67.0294 30.0978C66.5314 29.9885 66.0334 29.8245 65.5354 29.6059C65.0496 29.3872 64.5819 29.1079 64.1325 28.7678C63.6831 28.4155 63.2823 27.9965 62.93 27.5106C62.5899 27.0126 62.3166 26.4417 62.1101 25.798C61.9037 25.1421 61.8004 24.4072 61.8004 23.5934V10.7669C61.8004 10.3297 61.849 9.86203 61.9462 9.36404C62.0555 8.85389 62.2195 8.35589 62.4381 7.87004C62.6567 7.37204 62.9422 6.89834 63.2944 6.44892C63.6467 5.99951 64.0657 5.60475 64.5516 5.26466C65.0496 4.91241 65.6204 4.63305 66.2642 4.42656C66.9079 4.22007 67.6367 4.11683 68.4505 4.11683H85.5404V8.85389H68.4505C67.8311 8.85389 67.3574 9.01787 67.0294 9.34582C66.7014 9.67377 66.5375 10.1596 66.5375 10.8034V23.5934C66.5375 24.2008 66.7014 24.6745 67.0294 25.0146C67.3695 25.3425 67.8432 25.5065 68.4505 25.5065H85.5404V30.2435Z" fill="white"/>
<path d="M94.7959 30.2435H90.0588V4.11683H94.7959V30.2435Z" fill="white"/>
<path d="M155.485 30.2435H133.877C133.537 30.2435 133.221 30.1828 132.929 30.0613C132.638 29.9399 132.383 29.7759 132.164 29.5694C131.957 29.3508 131.794 29.0957 131.672 28.8042C131.551 28.5127 131.49 28.1969 131.49 27.8568V4.11683H136.227V25.5065H155.485V30.2435Z" fill="white"/>
<path d="M163.738 30.2435H159.001V4.11683H163.738V30.2435Z" fill="white"/>
<path d="M192.889 8.85389H182.45V30.2435H177.713V8.85389H167.255V4.11683H192.889V8.85389Z" fill="white"/>
<path d="M217.868 19.5669H202.91V14.7934H217.868V19.5669ZM220 30.2435H202.91C202.254 30.2435 201.538 30.1281 200.76 29.8974C199.983 29.6666 199.26 29.2901 198.592 28.7678C197.936 28.2333 197.384 27.5471 196.934 26.709C196.497 25.8587 196.278 24.8202 196.278 23.5934V6.50358C196.278 6.17563 196.339 5.8659 196.46 5.57439C196.582 5.28288 196.746 5.0278 196.952 4.80917C197.171 4.59054 197.426 4.42049 197.718 4.29903C198.009 4.17756 198.325 4.11683 198.665 4.11683H220V8.85389H201.015V23.5934C201.015 24.2129 201.179 24.6866 201.507 25.0146C201.835 25.3425 202.315 25.5065 202.947 25.5065H220V30.2435Z" fill="white"/>
<g clip-path="url(#clip0_5_6645)">
<path d="M129.835 28.5001L123.587 14.9452C123.546 14.8571 123.5 14.7714 123.449 14.6886C123.289 14.4337 123.082 14.213 122.838 14.039C122.594 13.8651 122.319 13.7413 122.028 13.6749C121.736 13.6084 121.435 13.6004 121.141 13.6515C120.846 13.7026 120.565 13.8117 120.312 13.9725L120.238 14.0202L102.441 25.3504L113.946 6.80856L117.598 11.8094C117.769 12.0431 118.019 12.2051 118.301 12.2644C118.583 12.3238 118.876 12.2763 119.126 12.1311C119.375 11.9858 119.562 11.753 119.652 11.4771C119.742 11.2012 119.729 10.9015 119.613 10.6353L115.73 1.67215C115.571 1.30436 115.312 0.989333 114.984 0.76326C114.655 0.537188 114.27 0.409235 113.872 0.394097C113.475 0.378959 113.081 0.477248 112.737 0.677678C112.392 0.878109 112.111 1.17255 111.924 1.52719L111.848 1.67215L97.7422 28.5001C97.6256 28.7222 97.582 28.9759 97.6175 29.2247C97.653 29.4735 97.7658 29.7045 97.9397 29.8844C98.1136 30.0644 98.3396 30.184 98.5852 30.226C98.8307 30.2681 99.0832 30.2304 99.3062 30.1185L99.3211 30.111L120.656 19.3706L127.82 29.6748C127.988 29.9155 128.239 30.084 128.524 30.1473C128.809 30.2105 129.107 30.164 129.36 30.0167C129.612 29.8695 129.801 29.6322 129.889 29.3516C129.977 29.0709 129.958 28.7672 129.835 28.5001V28.5001Z" fill="url(#paint0_linear_5_6645)"/>
</g>
<defs>
<linearGradient id="paint0_linear_5_6645" x1="108.503" y1="4.43113" x2="130.815" y2="6.85881" gradientUnits="userSpaceOnUse">
<stop stop-color="#5766FF"/>
<stop offset="1" stop-color="#00ACFF"/>
</linearGradient>
<clipPath id="clip0_5_6645">
<rect width="32.3383" height="29.8508" fill="white" transform="translate(97.6078 0.392578)"/>
</clipPath>
</defs>
</svg>
