<svg width="1362" height="62" viewBox="0 0 1362 62" fill="none" xmlns="http://www.w3.org/2000/svg">
<path d="M1356.31 7.4029C1325.35 6.33974 1294.05 6.04978 1262.98 6.50082C1231.79 6.95186 1200.83 8.11168 1170.31 9.91584C1139.8 11.72 1109.73 14.1363 1080.44 17.2291L1069.49 18.4212C1065.91 18.84 1062.22 19.1944 1058.65 19.6454L1047.92 20.9663C1046.13 21.1919 1044.34 21.3851 1042.55 21.6429L1037.3 22.3517C1023.1 24.188 1009.24 26.2177 995.715 28.4729C968.665 32.9189 943.18 38.1703 920.154 44.2271C908.417 47.1589 896.904 50.2195 884.385 52.8935C871.977 55.5998 858.452 57.9516 843.921 59.6269C836.656 60.4323 829.167 61.1733 821.454 61.4955C817.542 61.6888 813.629 61.7855 809.717 61.7855C805.805 61.8177 801.893 61.721 797.981 61.4955C794.068 61.3022 790.268 60.98 786.691 60.529C785.797 60.4001 784.903 60.3035 784.008 60.1746L781.438 59.788C780.543 59.6591 779.761 59.498 778.978 59.337L777.749 59.1114L776.519 58.8537C770.148 57.5006 764.783 55.8575 759.976 54.0856C755.17 52.3136 750.699 50.445 746.339 48.6086L733.261 43.0029C724.543 39.2657 715.6 35.5929 705.429 32.2101C695.369 28.7951 682.85 26.0244 669.213 23.8981C667.536 23.6081 665.748 23.3826 663.959 23.1571C662.171 22.9316 660.494 22.6738 658.706 22.4483L653.34 21.8362C652.446 21.7395 651.552 21.6107 650.658 21.514L647.863 21.2563L642.274 20.7408C640.374 20.5797 638.474 20.4509 636.685 20.322C632.997 19.9998 629.084 19.8065 625.284 19.581C623.384 19.4521 621.484 19.3877 619.583 19.3233C617.683 19.2588 615.783 19.1622 613.771 19.0977L607.958 18.9689L605.052 18.9044C604.046 18.8722 603.152 18.8722 602.146 18.8722L596.334 18.8078C594.433 18.7756 592.421 18.84 590.521 18.84C588.621 18.8722 586.609 18.8722 584.709 18.9044L578.896 19.0333C563.359 19.4199 548.157 20.4509 533.403 21.9006C518.648 23.3182 504.452 25.1546 490.592 27.2487C483.662 28.2796 476.843 29.375 470.248 30.567C463.654 31.7591 457.17 32.9833 450.576 34.2076C437.498 36.6239 423.861 38.9435 408.994 40.3611C394.128 41.8108 378.255 42.1652 362.718 41.843C354.894 41.682 347.181 41.3598 339.58 40.9087C331.868 40.4899 324.379 39.9422 316.778 39.3945C309.177 38.8146 301.688 38.2347 294.199 37.6226C286.71 37.0427 279.22 36.3983 271.843 35.6896C264.466 34.9808 257.088 34.2076 249.935 33.3699L228.361 30.7603C213.942 29.0528 199.411 27.442 184.545 26.0889C154.812 23.4148 124.408 21.2885 93.4459 20.1287C62.5953 18.9689 31.1858 18.7111 0.223389 19.7099C31.1858 18.6467 62.5953 18.9044 93.5577 20.032C124.52 21.1596 154.924 23.2537 184.768 25.9278C199.635 27.2487 214.278 28.8917 228.697 30.5993L250.27 33.1766C257.536 34.0143 264.801 34.7875 272.178 35.4963C279.556 36.205 287.045 36.8494 294.534 37.4293C302.023 38.0414 309.512 38.6213 317.113 39.2012C324.602 39.7489 332.203 40.2966 339.916 40.7154C347.517 41.1343 355.229 41.4564 363.054 41.6175C378.479 41.9397 394.351 41.5853 409.106 40.1355C423.861 38.7502 437.386 36.4306 450.464 34.0143C457.059 32.79 463.542 31.5658 470.137 30.3737C476.732 29.1817 483.55 28.0541 490.48 27.0232C504.341 24.9613 518.648 23.0927 533.403 21.6429C548.157 20.1931 563.471 19.1622 579.12 18.7433L584.932 18.6145C586.832 18.5823 588.845 18.5823 590.745 18.55C592.645 18.55 594.657 18.4856 596.557 18.5178L602.37 18.55C603.376 18.55 604.27 18.55 605.276 18.5823L608.182 18.6467L613.995 18.7756C615.895 18.84 617.907 18.9366 619.807 19.0011C621.707 19.0977 623.719 19.1299 625.619 19.2588C629.42 19.4843 633.332 19.6776 637.021 19.9998C638.921 20.1609 640.821 20.2898 642.721 20.4186L648.31 20.9341L651.105 21.1918C651.999 21.2885 652.893 21.3851 653.787 21.514L659.264 22.1261C661.053 22.3517 662.841 22.6094 664.63 22.8349C666.418 23.0927 668.207 23.286 669.883 23.5759C683.632 25.7022 696.375 28.5051 706.435 31.9202C727.114 38.718 742.092 46.6756 760.982 53.8278C765.789 55.5676 771.154 57.2428 777.413 58.5637L778.531 58.8215L779.761 59.047C780.543 59.2081 781.326 59.337 782.22 59.498L784.791 59.8847C785.685 60.0135 786.579 60.1102 787.473 60.239C791.05 60.6901 794.739 61.0123 798.539 61.2056C802.34 61.3989 806.252 61.4955 810.053 61.4955C813.965 61.4955 817.765 61.3989 821.566 61.2056C829.278 60.8512 836.656 60.1424 843.921 59.337C858.34 57.6939 871.866 55.342 884.273 52.668C896.792 49.994 908.305 46.9656 920.042 44.0016L928.872 41.7786L933.232 40.6832C934.685 40.3288 936.25 39.9745 937.703 39.6201C943.739 38.2025 949.998 36.8494 956.258 35.5285C968.889 32.8867 982.078 30.5026 995.715 28.2474C1009.24 26.0244 1023.21 23.9947 1037.41 22.1584L1042.66 21.4496C1044.45 21.2241 1046.24 20.9985 1048.03 20.773L1058.76 19.4521C1062.33 19.0011 1066.02 18.6145 1069.6 18.2279L1080.55 17.0358C1109.84 13.943 1140.02 11.5267 1170.54 9.75475C1201.16 7.98281 1232.13 6.85521 1263.31 6.43639C1294.16 6.01757 1325.35 6.30752 1356.31 7.4029Z" fill="url(#paint0_linear_1_82516)"/>
<path d="M1356.76 8.20813C1326.13 7.27383 1295.17 7.11275 1264.43 7.56379C1233.69 8.04705 1202.95 9.14243 1172.77 10.8177C1142.48 12.493 1112.63 14.7482 1083.46 17.5833L1072.51 18.6787C1070.72 18.872 1068.82 19.0331 1067.03 19.2264L1061.66 19.8063L1050.82 20.9983C1047.24 21.3849 1043.67 21.836 1040.09 22.2548C1025.78 23.9301 1011.81 25.8309 998.175 27.8606C984.538 29.8903 971.124 32.1455 958.27 34.594C951.899 35.8182 945.527 37.0747 939.38 38.4278L921.16 42.5194C915.124 43.8725 908.976 45.2579 902.828 46.5788C896.68 47.8997 890.309 49.1884 883.826 50.3804C870.748 52.7645 856.776 54.7297 841.909 55.9862C834.532 56.6305 826.819 57.0493 819.107 57.1138C815.195 57.146 811.282 57.1138 807.482 56.9527C803.681 56.7916 799.881 56.5339 796.192 56.1795C792.504 55.7929 789.039 55.3096 785.685 54.7297C784.903 54.6008 784.12 54.4075 783.226 54.2464C782.444 54.0854 781.661 53.9243 780.879 53.7632C779.314 53.4088 777.861 53.0544 776.408 52.7C770.595 51.218 765.565 49.5105 760.759 47.7708C751.146 44.2913 741.98 40.7152 732.479 37.2358C727.673 35.4961 722.754 33.7886 717.613 32.1455C715.042 31.3078 712.359 30.5346 709.676 29.7292C708.335 29.3104 706.882 28.9882 705.429 28.6016L703.305 28.0539L702.187 27.7639L701.07 27.5062L696.598 26.4753L695.481 26.2175L694.251 25.992L691.904 25.541L689.556 25.0899L688.327 24.8644L687.097 24.6389L682.179 23.8012L680.95 23.5757L679.608 23.3824L677.037 22.9958L674.467 22.6092C673.572 22.4803 672.79 22.3515 671.896 22.2548C668.319 21.836 664.854 21.3527 661.165 21.0306C659.376 20.8373 657.588 20.644 655.688 20.4829L650.099 20.0318C649.205 19.9674 648.311 19.8707 647.305 19.8063L644.51 19.613L638.921 19.2586C631.32 18.872 623.719 18.5498 616.007 18.4532C614.107 18.421 612.206 18.3888 610.194 18.3888H604.382H601.476L598.569 18.421L592.757 18.5176C590.857 18.5498 588.957 18.6465 587.056 18.6787L584.15 18.7754C583.144 18.8076 582.25 18.8398 581.244 18.872C577.443 19.0653 573.643 19.1942 569.843 19.4519C554.753 20.354 540.11 21.7716 525.914 23.5113C511.718 25.251 497.97 27.2807 484.668 29.4715C471.367 31.6944 458.736 34.2396 445.434 36.4948C438.839 37.6224 432.021 38.6856 424.867 39.5876C417.825 40.4897 410.448 41.1985 402.959 41.714C387.869 42.7127 372.22 42.8094 356.794 42.3261C341.369 41.8751 326.279 40.8763 311.413 39.7809C303.924 39.2333 296.546 38.6533 289.057 38.0412C281.68 37.4291 274.302 36.7203 267.037 35.9793C252.506 34.4651 238.757 32.4676 224.561 30.6957C210.477 28.8915 196.17 27.184 181.639 25.7343C152.577 22.8025 122.732 20.4184 92.2167 19.1297C61.7014 17.8088 30.6272 17.4867 0.000129791 18.6143C30.6272 17.4545 61.7014 17.7766 92.2167 19.0331C122.732 20.3218 152.688 22.6736 181.751 25.5732C196.393 27.023 210.589 28.7305 224.673 30.5024C238.869 32.2743 252.618 34.2718 267.149 35.786C274.414 36.5592 281.68 37.2358 289.057 37.8479C296.434 38.46 303.924 39.0077 311.413 39.5876C326.391 40.683 341.369 41.6495 356.683 42.1006C371.996 42.5838 387.533 42.455 402.511 41.4885C410.001 40.973 417.266 40.2642 424.308 39.3621C431.35 38.46 438.169 37.3969 444.763 36.2693C458.065 34.0141 470.696 31.4689 483.997 29.2137C497.411 26.9907 511.159 24.9611 525.355 23.2213C539.551 21.4816 554.306 20.064 569.396 19.1297C573.196 18.872 576.996 18.7431 580.797 18.5498C581.803 18.4854 582.697 18.4532 583.703 18.4532L586.609 18.3565C588.509 18.2921 590.41 18.2277 592.422 18.1955L598.234 18.0988L601.14 18.0666H604.047H609.859C611.759 18.0666 613.771 18.131 615.671 18.131C623.384 18.2277 631.097 18.5498 638.698 18.9364L644.398 19.2908L647.193 19.4841C648.087 19.5486 649.093 19.6452 649.987 19.7097L655.576 20.1607C657.476 20.3218 659.265 20.5151 661.053 20.7084C664.742 21.0628 668.207 21.5138 671.784 21.9326C672.678 22.0293 673.572 22.1582 674.467 22.287L677.037 22.6736L679.608 23.0602L680.95 23.2535L682.179 23.4791L687.209 24.3167L688.439 24.5422L689.892 24.7678L692.239 25.251L694.586 25.7343L695.816 25.9598L696.934 26.2175L701.517 27.2485L702.634 27.5062L703.752 27.7962L705.876 28.3761C707.329 28.7627 708.782 29.1171 710.124 29.5359C712.806 30.3091 715.489 31.1145 718.06 31.9522C723.202 33.5952 728.232 35.3028 732.926 37.0747C742.539 40.5542 751.593 44.1625 761.206 47.6419C766.012 49.3817 771.042 51.057 776.743 52.5389C778.196 52.9255 779.649 53.2477 781.102 53.6021C781.885 53.7632 782.667 53.9243 783.45 54.0854C784.232 54.2464 785.015 54.4075 785.797 54.5364C789.039 55.1163 792.504 55.5996 796.081 55.9862C799.657 56.3728 803.458 56.5983 807.147 56.7594C810.947 56.9205 814.747 56.9527 818.548 56.9205C826.261 56.856 833.75 56.4372 841.127 55.8251C855.882 54.5686 869.854 52.6356 882.82 50.2515C889.303 49.0595 895.674 47.803 901.822 46.4821C907.97 45.1612 914.006 43.7759 920.154 42.4227L938.821 38.299C944.968 36.9781 951.34 35.6894 957.823 34.4651C970.677 32.0166 984.091 29.7936 997.839 27.7317C1011.59 25.7021 1025.56 23.8012 1039.87 22.1259C1043.44 21.7071 1047.02 21.2561 1050.6 20.8695L1061.44 19.6774L1066.81 19.0975C1068.59 18.9042 1070.49 18.7431 1072.28 18.5498L1083.24 17.4545C1112.52 14.6193 1142.37 12.3641 1172.66 10.6888C1202.95 9.04577 1233.69 7.95039 1264.43 7.49935C1295.17 7.04831 1326.02 7.27383 1356.76 8.20813Z" fill="url(#paint1_linear_1_82516)"/>
<path d="M1357.09 9.01357C1326.69 8.24036 1296.06 8.17592 1265.55 8.65918C1235.03 9.14244 1204.74 10.2056 1174.67 11.752C1144.6 13.2985 1114.87 15.3926 1085.7 17.9699L1074.74 18.9365C1071.05 19.2586 1067.48 19.6452 1063.9 19.9996C1060.32 20.354 1056.63 20.6762 1053.06 21.0628L1042.33 22.1904C1028.02 23.7046 1013.94 25.4121 1000.07 27.2485C986.214 29.1171 972.689 31.1468 959.611 33.402C953.016 34.5296 946.645 35.6894 940.385 36.9458L921.495 40.6508C908.976 43.1315 896.121 45.58 882.596 47.6097C868.959 49.6072 854.54 51.1858 839.45 52.0235C831.961 52.4101 824.137 52.5712 816.536 52.3457C812.735 52.249 808.935 52.0235 805.246 51.7013C803.346 51.5402 801.557 51.3469 799.769 51.1536C797.981 50.9281 796.192 50.7026 794.516 50.4448C791.05 49.9294 787.921 49.285 784.903 48.6085C781.885 47.9319 778.978 47.1909 776.296 46.4177C770.819 44.8713 765.789 43.2282 760.647 41.5851C750.475 38.299 740.639 34.9162 730.02 31.7589C724.654 30.1802 719.177 28.666 713.477 27.2163C710.459 26.5397 707.664 25.7987 704.423 25.2188C702.858 24.9288 701.293 24.5745 699.728 24.2845L694.81 23.4469C693.245 23.1569 691.456 22.9314 689.78 22.6736L687.209 22.287C686.315 22.1582 685.532 22.0293 684.638 21.9327C681.173 21.4816 677.708 21.0306 674.131 20.6762C667.089 19.8707 659.6 19.3231 652.222 18.8398L646.634 18.5499C645.739 18.5176 644.733 18.4532 643.839 18.421L641.045 18.3243L635.344 18.0988L629.643 17.9699L626.849 17.9055C625.955 17.8733 624.949 17.8733 623.943 17.8733L618.242 17.8411C616.342 17.8411 614.442 17.8733 612.541 17.8733C610.641 17.9055 608.741 17.8733 606.841 17.9377C591.639 18.2277 576.661 19.0975 562.13 20.4184C547.599 21.7393 533.515 23.4469 519.878 25.4121C506.241 27.3774 492.827 29.4715 479.861 31.8233C466.895 34.143 454.152 36.5915 440.627 38.6211C433.809 39.6521 426.879 40.5542 419.613 41.263C412.348 42.0039 404.858 42.5194 397.369 42.8416C382.168 43.5182 366.742 43.4215 351.652 42.8738C336.451 42.3261 321.584 41.3596 306.718 40.2642C299.34 39.7165 291.963 39.1688 284.697 38.4923C277.432 37.8157 270.166 37.0747 263.124 36.2371C259.548 35.8182 256.082 35.3672 252.617 34.9162C249.152 34.4329 245.799 33.9497 242.334 33.4664C235.515 32.4999 228.585 31.5334 221.767 30.5991C208.018 28.6983 194.046 26.9263 179.738 25.3477C165.542 23.769 151.123 22.3193 136.369 21.095C128.991 20.4829 121.614 19.9352 114.237 19.4519C106.747 18.9687 99.2584 18.5176 91.7692 18.1632C61.7011 16.7135 30.8504 16.3269 0.558691 17.5511C30.8504 16.2947 61.7011 16.649 91.7692 18.0666C99.2584 18.421 106.859 18.8398 114.237 19.3231C121.726 19.8063 129.103 20.354 136.48 20.9661C151.123 22.1904 165.654 23.6079 179.85 25.1866C194.158 26.733 208.13 28.5372 221.878 30.4058C228.809 31.3401 235.627 32.3066 242.446 33.2731C245.911 33.7563 249.264 34.2396 252.729 34.7229C256.194 35.2061 259.659 35.6249 263.236 36.0438C270.278 36.8814 277.432 37.6224 284.697 38.299C291.963 38.9755 299.34 39.5232 306.718 40.0709C321.472 41.1341 336.451 42.1006 351.541 42.6483C366.631 43.196 382.056 43.2926 397.034 42.6161C404.523 42.2939 412.012 41.7462 419.166 41.0374C426.32 40.3287 433.362 39.3943 440.068 38.3956C453.594 36.3659 466.336 33.9174 479.191 31.5656C492.157 29.2137 505.57 27.0874 519.207 25.1222C532.956 23.1891 547.04 21.4494 561.571 20.1285C576.102 18.8076 591.304 17.9055 606.505 17.6155C608.406 17.5511 610.306 17.5833 612.206 17.5511C614.106 17.5511 616.006 17.5189 617.907 17.5189L623.607 17.5511C624.613 17.5511 625.508 17.5511 626.514 17.5833L629.42 17.6478L635.12 17.7766L640.821 18.0022L643.616 18.0988C644.51 18.131 645.516 18.1955 646.41 18.2277L652.111 18.5176C659.6 19.0009 666.977 19.5486 674.131 20.354C677.708 20.7084 681.285 21.1917 684.75 21.6105C685.644 21.7071 686.538 21.836 687.321 21.9649L689.892 22.3515C691.568 22.6092 693.357 22.8347 694.922 23.1247L699.84 23.9946C701.516 24.2845 702.97 24.6067 704.646 24.9288C707.888 25.541 710.682 26.282 713.7 26.9585C719.513 28.4083 724.99 29.9225 730.355 31.5011C740.974 34.6584 750.81 38.0412 760.982 41.3274C766.012 42.9705 771.042 44.6135 776.519 46.16C779.202 46.9332 782.108 47.6419 785.014 48.3185C788.032 48.9951 791.162 49.6394 794.404 50.1227C796.08 50.4126 797.757 50.6059 799.545 50.8314C801.334 51.0247 803.122 51.2181 804.911 51.3791C808.488 51.7013 812.288 51.8946 816.089 52.0235C823.578 52.249 831.29 52.1201 838.779 51.7335C853.758 50.8959 868.065 49.3172 881.702 47.352C895.227 45.3545 907.97 42.906 920.601 40.4253L939.603 36.7203C945.862 35.4639 952.346 34.304 958.94 33.1764C972.13 30.9212 985.655 28.8916 999.516 27.023C1013.38 25.1866 1027.46 23.4791 1041.88 21.9649L1052.61 20.8373C1056.19 20.4507 1059.88 20.1285 1063.45 19.7741C1067.03 19.4197 1070.72 19.0653 1074.3 18.7431L1085.25 17.7766C1114.42 15.1993 1144.16 13.1052 1174.22 11.5909C1204.29 10.0445 1234.7 9.01357 1265.21 8.56253C1296.06 8.11149 1326.69 8.20814 1357.09 9.01357Z" fill="url(#paint2_linear_1_82516)"/>
<path d="M1357.43 9.81958C1296.96 8.62755 1236.15 9.81958 1176.57 12.6869C1146.73 14.1367 1117.11 16.0053 1087.93 18.2927C1058.76 20.6123 1029.92 23.2541 1001.86 26.5403C987.891 28.1834 974.142 30.0197 960.729 32.0494C954.022 33.0482 947.539 34.1758 941.056 35.2711L921.495 38.5895C908.417 40.8125 895.115 42.9066 881.031 44.5497C873.989 45.3873 866.836 46.0961 859.458 46.6438C852.193 47.2237 844.592 47.6425 836.991 47.7714C829.39 47.9003 821.677 47.7714 814.3 47.2559C810.611 46.9982 807.035 46.6116 803.458 46.1605C799.993 45.6773 796.751 45.1296 793.621 44.5175C787.362 43.261 781.661 41.8112 776.184 40.297C770.707 38.7828 765.341 37.2686 759.976 35.7222C749.245 32.6615 738.403 29.6009 726.666 26.8625C723.76 26.1859 720.742 25.5093 717.724 24.865L713.141 23.9307C711.576 23.6407 709.9 23.3508 708.335 23.093C707.552 22.9642 706.77 22.8031 705.876 22.6742L703.417 22.2876C701.74 22.0299 700.063 21.7721 698.387 21.5466C694.921 21.0956 691.568 20.6445 687.991 20.2902C680.949 19.4847 673.684 18.9048 666.306 18.4216C662.618 18.196 658.929 17.9705 655.129 17.8417C653.228 17.7772 651.44 17.6806 649.54 17.6161L643.951 17.455C642.051 17.3906 640.15 17.3906 638.362 17.3584C636.462 17.3262 634.562 17.294 632.661 17.294L626.961 17.294H624.166L621.372 17.3262L615.671 17.4228C613.771 17.4551 611.871 17.5517 610.082 17.5839C606.282 17.6806 602.593 17.8739 598.904 18.035C597.004 18.0994 595.216 18.2605 593.316 18.3571C591.527 18.486 589.627 18.5827 587.839 18.7115L582.361 19.1303L576.884 19.5814C569.619 20.2257 562.577 20.9345 555.535 21.7722C541.563 23.4152 527.926 25.3483 514.624 27.4102C508.029 28.4411 501.323 29.5043 494.839 30.6319C488.356 31.7595 481.985 32.9193 475.502 34.0791C462.648 36.3987 449.681 38.6862 435.821 40.4581C428.891 41.328 421.737 42.1012 414.36 42.6489C406.982 43.1966 399.493 43.5832 392.004 43.8087C376.914 44.2597 361.601 44.002 346.622 43.3899C331.644 42.7777 316.778 41.8434 302.135 40.7158C287.492 39.6205 273.073 38.2029 259.324 36.3343C255.859 35.8833 252.506 35.3678 249.152 34.8523L239.092 33.3381C232.386 32.3072 225.679 31.3084 218.972 30.3097C212.266 29.311 205.447 28.3444 198.629 27.4424C191.81 26.5081 184.88 25.6382 177.838 24.8006C163.866 23.0931 149.782 21.5466 135.363 20.2257C120.943 18.9048 106.189 17.8417 91.3222 17.0684C61.5893 15.522 30.9622 15.071 1.00579 16.3919C30.9622 15.0388 61.5893 15.4576 91.4339 16.9718C106.3 17.745 121.055 18.8082 135.474 20.0969C149.894 21.3855 164.089 22.932 178.062 24.6073C184.992 25.4449 191.922 26.3148 198.852 27.2491C205.671 28.1834 212.489 29.1499 219.196 30.1164C225.902 31.1151 232.609 32.1139 239.316 33.1448L249.376 34.659C252.729 35.1745 256.082 35.6577 259.548 36.141C273.184 38.0096 287.604 39.4271 302.247 40.5225C316.889 41.6179 331.644 42.5844 346.622 43.1643C361.601 43.7765 376.802 44.002 391.78 43.5509C399.27 43.3254 406.759 42.971 414.024 42.3911C421.29 41.8434 428.444 41.0702 435.374 40.2004C449.234 38.4284 462.089 36.141 474.943 33.8214C481.314 32.6615 487.686 31.5017 494.281 30.3741C500.764 29.2465 507.359 28.1834 514.065 27.1524C527.367 25.0583 541.004 23.1253 554.976 21.4822C569.06 19.8391 583.591 18.5182 598.457 17.745C602.258 17.5839 605.946 17.3584 609.747 17.2617C611.647 17.1973 613.547 17.1329 615.448 17.1007L621.148 17.004L623.943 16.9718H626.737L632.438 16.9718C634.338 16.9718 636.238 17.004 638.138 17.0362C640.039 17.0684 641.939 17.0684 643.839 17.1329L649.54 17.294C651.44 17.3584 653.34 17.455 655.129 17.5195C658.929 17.6484 662.618 17.9061 666.306 18.0994C673.684 18.5826 681.061 19.1626 688.103 19.968C702.411 21.4822 715.489 23.8018 727.225 26.6047C738.962 29.3754 749.804 32.436 760.535 35.4967C765.9 37.0431 771.266 38.5573 776.743 40.0715C782.22 41.5857 787.809 43.0355 794.068 44.2597C797.198 44.8718 800.44 45.4195 803.793 45.9028C807.258 46.3538 810.723 46.7082 814.412 46.966C821.677 47.4814 829.278 47.6103 836.767 47.4814C844.256 47.3526 851.746 46.9337 859.011 46.3538C866.277 45.8061 873.43 45.0974 880.472 44.2597C894.445 42.6166 907.746 40.5548 920.824 38.3318L940.609 35.0778C947.204 33.9824 953.575 32.8548 960.393 31.8561C973.807 29.8264 987.555 27.9901 1001.64 26.347C1029.7 23.0608 1058.65 20.419 1087.82 18.1316C1116.99 15.8442 1146.62 13.9756 1176.57 12.5258C1236.26 9.69071 1297.07 8.56311 1357.43 9.81958Z" fill="url(#paint3_linear_1_82516)"/>
<path d="M1357.88 10.5924C1327.92 10.1413 1297.74 10.2702 1267.78 10.7857C1237.83 11.3012 1207.87 12.2677 1178.25 13.5886C1148.52 14.9095 1119.12 16.5848 1089.83 18.5822L1084.36 18.9688L1078.88 19.3555L1067.92 20.1609C1060.66 20.7086 1053.39 21.2563 1046.13 21.8362C1031.71 22.996 1017.29 24.2847 1003.09 25.7022C988.897 27.1198 974.925 28.6984 961.288 30.5026C947.763 32.3712 934.349 34.3042 920.824 36.2372C907.299 38.1381 893.439 39.8778 879.131 41.1665C871.977 41.8108 864.6 42.3263 857.223 42.7129C849.846 43.0673 842.245 43.2606 834.644 43.1639C830.843 43.1317 827.155 42.9706 823.354 42.7773C819.666 42.5518 815.977 42.2619 812.512 41.8752C808.935 41.4886 805.582 41.0054 802.34 40.4255C799.098 39.8778 795.969 39.2657 792.951 38.6213C786.915 37.3326 781.102 35.9151 775.402 34.5297C769.701 33.1444 763.888 31.7268 758.188 30.3415C746.563 27.603 734.715 24.929 721.972 22.6738L719.513 22.255C718.73 22.1261 717.948 21.965 717.054 21.8684L712.024 21.1274C710.347 20.8697 708.67 20.6764 706.882 20.4508L704.311 20.1287C703.417 20.032 702.523 19.9354 701.74 19.8387L696.487 19.2588L691.121 18.7755C689.333 18.6145 687.544 18.4534 685.756 18.3245C683.967 18.1956 682.179 18.0345 680.279 17.9379C665.636 17.0036 650.658 16.5848 635.68 16.7781C633.779 16.8103 631.991 16.8103 630.091 16.8425L624.502 17.0036L621.707 17.068L618.913 17.1647L613.324 17.3902C611.424 17.4869 609.635 17.5835 607.847 17.6802C606.058 17.7768 604.158 17.8735 602.37 18.0023L596.893 18.3889C595.104 18.5178 593.316 18.6789 591.527 18.8078C577.108 20.032 563.248 21.6429 549.611 23.5115C536.086 25.3801 522.896 27.442 509.818 29.6005C496.852 31.7591 484.221 34.1109 471.366 36.3661C458.512 38.5891 445.21 40.6832 431.015 42.1652C416.819 43.6794 401.952 44.4848 386.862 44.7426C371.773 45.0003 356.682 44.6781 341.816 44.0338C326.95 43.3894 312.195 42.4552 297.776 41.2631C283.356 40.0711 269.161 38.4924 255.971 36.3983C242.781 34.3042 229.815 32.1457 216.625 30.0838C210.03 29.0528 203.435 28.0219 196.729 27.0554C190.022 26.0888 183.204 25.1545 176.385 24.2525C162.748 22.4483 148.776 20.8052 134.58 19.4199C120.384 18.0345 105.853 16.9069 91.0988 16.0693C61.7013 14.4262 31.1859 13.943 1.45306 15.3605C31.1859 13.943 61.5895 14.3618 91.0988 16.0049C105.853 16.8425 120.385 17.9379 134.692 19.3232C148.888 20.7086 162.86 22.3516 176.609 24.1236C183.427 25.0257 190.246 25.96 196.952 26.9265C203.659 27.893 210.366 28.8917 216.96 29.9549C230.15 32.0168 243.228 34.1753 256.306 36.2695C269.496 38.3314 283.58 39.91 297.999 41.102C312.419 42.2619 327.173 43.1962 341.928 43.8405C356.794 44.4848 371.772 44.7748 386.751 44.517C401.729 44.2593 416.595 43.4217 430.679 41.9397C444.763 40.4577 457.953 38.3636 470.807 36.1406C483.662 33.9176 496.181 31.5335 509.259 29.375C522.337 27.2164 535.527 25.1223 549.052 23.2859C562.577 21.4173 576.661 19.7743 591.08 18.55C592.869 18.4212 594.657 18.2278 596.557 18.1312L602.034 17.7446C603.823 17.6157 605.723 17.5191 607.512 17.4224C609.412 17.3258 611.2 17.1969 613.1 17.1325L618.689 16.9069L621.707 16.7136L624.502 16.6492L630.091 16.4881C631.991 16.4559 633.891 16.4237 635.68 16.4237C650.77 16.2304 665.86 16.6492 680.614 17.5835C682.403 17.7124 684.303 17.8412 686.091 17.9701C687.88 18.099 689.78 18.2278 691.568 18.4211L696.934 18.9044L702.187 19.4843C703.081 19.581 703.976 19.6776 704.87 19.7743L707.441 20.0964C709.117 20.322 710.906 20.5153 712.583 20.773L717.613 21.514C718.507 21.6429 719.289 21.7717 720.072 21.9006L722.531 22.3194C735.385 24.5746 747.345 27.2486 758.859 30.0193C764.671 31.4047 770.372 32.8222 776.072 34.2076C781.885 35.5929 787.474 37.0105 793.51 38.2991C796.528 38.9435 799.657 39.5556 802.787 40.1033C806.029 40.651 809.27 41.1342 812.735 41.5209C816.2 41.9075 819.777 42.2296 823.466 42.4229C827.155 42.6485 830.843 42.7773 834.532 42.8095C842.021 42.9384 849.51 42.7451 856.887 42.3907C864.265 42.0041 871.53 41.4886 878.684 40.8443C892.992 39.5878 906.852 37.8481 920.265 35.9473C933.679 34.0143 947.204 32.1134 960.729 30.2126C974.366 28.4085 988.45 26.8298 1002.65 25.4123C1016.84 23.9947 1031.26 22.7383 1045.68 21.5462C1052.95 20.9663 1060.21 20.4186 1067.48 19.8709L1078.43 19.0977L1083.91 18.7111L1089.39 18.3567C1118.67 16.3593 1148.18 14.7162 1177.91 13.3953C1207.65 12.1066 1237.49 11.2045 1267.56 10.689C1297.74 10.2058 1327.81 10.1413 1357.88 10.5924Z" fill="url(#paint4_linear_1_82516)"/>
<path d="M1358.55 12.2035C1328.81 12.1069 1299.08 12.3968 1269.35 12.9445C1239.73 13.4922 1210.1 14.3299 1180.6 15.3608C1151.09 16.3918 1121.58 17.5838 1092.29 18.9047C1062.89 20.2578 1033.5 21.5787 1004.43 23.3829C989.903 24.3172 975.483 25.3159 961.288 26.6368C954.246 27.2812 947.092 27.8611 940.05 28.5376C933.008 29.2142 925.854 29.8585 918.812 30.4707C904.616 31.6949 890.085 32.7259 875.331 33.3702C860.688 34.0146 845.374 34.079 830.843 32.9836C827.266 32.6937 823.689 32.3715 820.224 31.9204C816.759 31.5016 813.406 31.0184 810.164 30.5029C803.569 29.5042 797.198 28.3766 790.827 27.3134C778.084 25.1226 765.229 22.9641 751.928 21.0633C748.575 20.58 745.221 20.129 741.868 19.6779C738.515 19.2269 735.05 18.8081 731.584 18.4214C724.654 17.6482 717.612 17.0039 710.347 16.5529L707.664 16.3596L704.981 16.1985C703.193 16.1018 701.293 16.0052 699.504 15.9085C695.816 15.7474 692.127 15.5863 688.438 15.4897C684.75 15.3608 681.061 15.3286 677.372 15.2642C675.472 15.232 673.684 15.232 671.783 15.232C669.883 15.232 668.095 15.1997 666.194 15.232L660.606 15.2642C658.705 15.2964 656.917 15.3286 655.017 15.3608C651.328 15.4253 647.639 15.5863 643.951 15.683C636.573 16.0052 629.308 16.3596 622.154 16.9072C615 17.4227 607.847 18.0671 600.916 18.8403C593.986 19.5813 587.056 20.4189 580.349 21.2888C566.824 23.0607 553.746 25.0904 540.78 27.1845C527.814 29.3109 515.071 31.4694 502.44 33.7246C489.809 35.9798 477.067 38.235 463.765 40.168C457.17 41.1345 450.352 42.0366 443.422 42.8098C441.745 43.0031 439.956 43.1965 438.168 43.3575C436.38 43.5508 434.591 43.7119 432.914 43.873C429.338 44.1952 425.761 44.4851 422.184 44.7429C407.764 45.7738 392.786 46.2893 377.92 46.3215C363.053 46.3537 348.187 45.9349 333.432 45.2261C326.055 44.8717 318.789 44.4207 311.524 43.9052C304.258 43.3897 297.105 42.7776 290.174 42.0366C283.132 41.2956 276.314 40.458 269.719 39.4593C263.124 38.4927 256.865 37.3007 250.493 36.1731C237.974 33.8857 225.455 31.5338 212.824 29.3109C200.193 27.0557 187.227 24.9293 174.149 22.9319C160.959 20.9344 147.546 19.1302 133.574 17.5838C119.714 16.0696 105.518 14.7809 90.9866 13.8788C62.0362 12.0102 31.7445 11.527 2.45871 13.1056C31.7445 11.4948 62.0363 11.9458 91.0985 13.8144C105.63 14.7165 119.937 15.9729 133.797 17.4872C147.658 19.0014 161.183 20.8055 174.485 22.803C187.674 24.8004 200.641 26.9268 213.271 29.182C225.902 31.4372 238.421 33.7568 250.94 36.0442C257.2 37.1718 263.46 38.3639 270.054 39.3304C276.649 40.3291 283.468 41.1668 290.398 41.9078C297.328 42.6488 304.482 43.2609 311.747 43.7441C319.013 44.2596 326.279 44.6784 333.544 45.0328C348.187 45.7416 363.053 46.1604 377.92 46.096C392.786 46.0638 407.541 45.5483 421.96 44.5173C425.537 44.2596 429.114 43.9697 432.691 43.6475C434.479 43.4864 436.268 43.3253 437.944 43.132C439.733 42.9387 441.41 42.7776 443.198 42.5843C450.128 41.8111 456.835 40.909 463.43 39.9425C476.62 38.0095 489.362 35.7543 501.993 33.4991C514.624 31.2439 527.478 29.0531 540.333 26.9268C553.299 24.8005 566.377 22.7708 579.902 20.9988C586.721 20.0967 593.539 19.2913 600.581 18.5181C607.511 17.7771 614.665 17.1006 621.931 16.5851C629.084 16.0374 636.462 15.6508 643.839 15.3608C647.528 15.232 651.216 15.1031 655.017 15.0386C656.917 15.0064 658.705 14.942 660.606 14.942L666.194 14.9098C668.095 14.8776 669.883 14.9098 671.783 14.9098C673.684 14.9098 675.472 14.9098 677.372 14.942C681.061 15.0064 684.861 15.0387 688.55 15.1675C692.239 15.2642 695.927 15.4253 699.616 15.5863C701.404 15.683 703.305 15.7796 705.093 15.8763L707.888 16.0374L710.57 16.2307C717.836 16.6817 724.99 17.3583 731.92 18.1315C735.385 18.5181 738.85 18.9369 742.203 19.388C745.557 19.839 748.91 20.2901 752.263 20.7733C765.565 22.7063 778.419 24.8649 791.162 27.0557C797.533 28.151 803.905 29.2464 810.499 30.2451C813.741 30.7284 817.094 31.2117 820.448 31.6305C823.801 32.0493 827.378 32.4037 830.955 32.6937C845.262 33.789 860.464 33.7246 874.995 33.0803C889.638 32.4359 904.169 31.4372 918.365 30.2129C925.519 29.6008 932.561 28.9565 939.603 28.2799C946.645 27.6033 953.798 26.9912 960.952 26.3791C975.148 25.0582 989.567 24.0272 1004.1 23.1252C1033.16 21.321 1062.56 20.0001 1091.96 18.6792C1121.35 17.3583 1150.75 16.1663 1180.37 15.1675C1209.88 14.1688 1239.5 13.3634 1269.24 12.8479C1299.08 12.3324 1328.81 12.0747 1358.55 12.2035Z" fill="url(#paint5_linear_1_82516)"/>
<path d="M1358.99 12.9762C1299.64 13.1695 1240.51 14.4904 1181.49 16.1979C1151.98 17.0356 1122.47 17.9699 1092.96 18.9042C1063.45 19.8384 1033.94 20.6439 1004.66 21.8681C997.28 22.1903 990.015 22.5125 982.749 22.8991C979.06 23.0924 975.483 23.3179 971.907 23.5434L961.064 24.22C953.799 24.6388 946.645 25.1543 939.379 25.6698C932.114 26.153 924.96 26.6685 917.694 27.0873C903.163 27.9894 888.52 28.7304 873.654 29.0526C858.899 29.3425 843.698 29.0848 829.614 27.635C815.641 26.1852 802.452 24.1233 789.038 22.3514C775.625 20.5472 761.988 18.8397 748.016 17.4222C741.086 16.7134 733.932 16.1013 726.778 15.6502C719.513 15.1992 712.247 14.877 704.87 14.6515C697.493 14.4582 690.115 14.3615 682.738 14.3937C680.838 14.3937 679.049 14.426 677.149 14.4582L674.354 14.4904L671.56 14.5548L666.083 14.6837L660.606 14.877C658.817 14.9414 656.917 15.0059 655.129 15.1025C653.34 15.1992 651.44 15.2636 649.652 15.3603C646.075 15.5536 642.386 15.7469 638.809 16.0046C631.544 16.4556 624.502 17.1 617.571 17.8088C603.599 19.2263 590.186 21.0305 576.996 22.9635C563.806 24.9288 550.952 27.0551 538.209 29.2136C531.838 30.309 525.467 31.3722 519.095 32.4998L500.093 35.8504C487.35 38.0734 474.496 40.1997 460.971 42.0039C454.264 42.9059 447.334 43.7114 440.292 44.3879C433.25 45.0967 426.096 45.6444 418.831 46.0954C404.3 46.9975 389.433 47.3841 374.567 47.3519C359.7 47.3197 344.834 46.9009 330.303 46.1276C315.66 45.3544 301.241 44.2591 287.492 42.616C280.674 41.8106 273.967 40.844 267.596 39.7487C264.354 39.201 261.336 38.6211 258.206 38.0089L248.929 36.237C236.633 33.8529 224.449 31.4366 212.042 29.0848C199.635 26.7651 187.004 24.5099 174.038 22.448C148.217 18.292 120.608 14.9092 91.6576 13.0084C77.2383 12.0097 62.4836 11.4298 47.7289 11.2365C32.9743 11.0432 17.9961 11.3976 3.46501 12.203C17.9961 11.3653 32.8625 11.0432 47.7289 11.2043C62.5954 11.3653 77.35 11.9453 91.7694 12.9118C120.72 14.8126 148.329 18.1632 174.261 22.287C187.227 24.3489 199.858 26.6041 212.377 28.9237C224.785 31.2433 236.969 33.6918 249.376 36.0759L258.653 37.8478C261.783 38.4278 264.801 39.0399 268.043 39.5554C274.414 40.6507 281.009 41.585 287.939 42.3905C301.576 44.0335 315.995 45.0967 330.638 45.8699C345.169 46.6431 360.036 47.0619 374.79 47.0942C389.545 47.1264 404.411 46.7076 418.831 45.8055C426.096 45.3544 433.25 44.8067 440.18 44.098C447.222 43.4214 454.041 42.616 460.747 41.7139C474.161 39.9097 487.015 37.7834 499.758 35.5604L518.76 32.2098C525.131 31.0822 531.503 30.0191 537.874 28.9237C550.617 26.7651 563.471 24.6066 576.773 22.6736C589.962 20.7083 603.487 18.9364 617.46 17.4866C624.502 16.7778 631.544 16.1335 638.809 15.6824C642.386 15.4247 646.075 15.2314 649.763 15.0381C651.552 14.9414 653.452 14.877 655.241 14.7804C657.029 14.6837 658.929 14.6193 660.718 14.5548L666.307 14.3615L671.895 14.2327L674.69 14.1682L677.484 14.136C679.385 14.1038 681.173 14.1038 683.073 14.0716C690.562 14.0716 697.94 14.136 705.317 14.3293C712.694 14.5548 720.072 14.877 727.337 15.3281C734.603 15.8113 741.756 16.4234 748.687 17.1322C762.659 18.5498 776.296 20.2573 789.709 22.0937C803.122 23.8978 816.312 25.9275 830.173 27.3773C844.145 28.7948 859.123 29.0848 873.878 28.7948C888.632 28.4727 903.275 27.7317 917.806 26.8618C925.072 26.4108 932.226 25.9275 939.491 25.4442C946.757 24.961 953.91 24.4455 961.176 24.0267L972.018 23.3501C975.595 23.1246 979.284 22.8991 982.973 22.7058C990.238 22.3192 997.615 21.9648 1004.88 21.6748C1034.28 20.4506 1063.79 19.6774 1093.3 18.7431C1122.81 17.841 1152.32 16.9067 1181.83 16.069C1240.4 14.3938 1299.64 13.1051 1358.99 12.9762Z" fill="url(#paint6_linear_1_82516)"/>
<path d="M1359.33 13.782C1300.09 14.3297 1240.96 15.6828 1181.94 17.0037C1152.43 17.648 1122.81 18.2924 1093.3 18.7756C1063.68 19.2911 1034.06 19.4522 1004.55 20.0965C997.169 20.2576 989.791 20.4187 982.414 20.6764L960.394 21.4819C945.751 22.094 931.108 22.835 916.465 23.4149C909.088 23.7048 901.71 23.9626 894.333 24.1559C886.956 24.3814 879.578 24.5103 872.089 24.5103C864.712 24.5103 857.223 24.3814 849.846 24.027C846.157 23.8659 842.58 23.6404 838.891 23.3505C835.314 23.0605 831.738 22.7383 828.272 22.384C821.23 21.6752 814.3 20.902 807.37 20.161C800.44 19.42 793.51 18.679 786.468 18.0024C772.495 16.6171 758.188 15.425 743.769 14.5552C740.192 14.3297 736.503 14.1686 732.814 14.0075C729.126 13.8786 725.437 13.7175 721.86 13.6531C718.171 13.5564 714.483 13.492 710.794 13.4276C707.105 13.4276 703.417 13.3631 699.728 13.3954C696.039 13.3954 692.351 13.4598 688.662 13.5242C686.874 13.5564 684.973 13.6209 683.185 13.6531L680.391 13.7175L677.596 13.8142C670.219 14.0397 662.953 14.4263 655.688 14.8773C652.111 15.1351 648.534 15.3606 644.957 15.6506C641.38 15.9083 637.915 16.2627 634.338 16.5526C632.55 16.7137 630.873 16.907 629.085 17.0681C627.296 17.2614 625.62 17.4225 623.831 17.6158C620.366 18.0024 617.013 18.4212 613.548 18.8401C599.911 20.5154 586.833 22.4806 573.866 24.5747C560.9 26.6366 548.269 28.8596 535.527 31.0181C522.784 33.2089 510.265 35.4963 497.411 37.6227C491.039 38.6858 484.556 39.749 477.961 40.7155C471.366 41.682 464.66 42.6163 457.841 43.4218C444.204 45.097 429.897 46.3213 415.254 47.0945C400.611 47.8999 385.745 48.2221 370.99 48.1255C356.124 48.061 341.369 47.5778 326.838 46.7401C312.307 45.9025 297.999 44.6782 284.474 42.8741C277.767 41.972 271.284 40.9088 265.137 39.7168C258.989 38.5247 252.953 37.2683 246.917 36.044C234.845 33.5633 222.885 31.0504 210.701 28.6341C198.517 26.2178 186.11 23.8659 173.367 21.7074C160.624 19.5488 147.435 17.5836 133.798 15.9083C120.161 14.233 106.077 12.8799 91.6577 11.8489C77.2384 10.818 62.5954 10.2059 47.729 10.0126C32.9743 9.85148 18.1079 10.1736 3.57682 11.0113C18.1079 10.1414 32.9743 9.78704 47.729 9.94812C62.4836 10.1414 77.2384 10.7213 91.6577 11.7523C106.077 12.7832 120.161 14.1041 133.798 15.7794C147.435 17.4225 160.736 19.3878 173.479 21.5463C186.333 23.7049 198.741 26.0245 210.924 28.4408C223.108 30.8571 235.068 33.37 247.14 35.8507C253.176 37.075 259.212 38.3314 265.36 39.5235C271.508 40.7155 277.991 41.7787 284.586 42.6485C297.999 44.4527 312.307 45.677 326.726 46.4824C341.257 47.32 356.012 47.7711 370.766 47.8355C385.521 47.8999 400.388 47.5778 414.919 46.7723C429.45 45.9991 443.646 44.7427 457.282 43.0996C464.101 42.2619 470.807 41.3599 477.402 40.3933C483.997 39.4268 490.48 38.3637 496.852 37.3005C509.706 35.1419 522.225 32.8867 534.856 30.696C547.599 28.5052 560.23 26.3144 573.196 24.2203C586.162 22.1262 599.352 20.161 612.989 18.4857C616.454 18.0668 619.807 17.648 623.272 17.2614C624.949 17.0681 626.737 16.8748 628.526 16.7137C630.314 16.5526 631.991 16.3271 633.779 16.1983C637.356 15.8761 640.821 15.5539 644.398 15.264C647.975 14.974 651.552 14.7485 655.241 14.4907C662.506 14.0397 669.772 13.6531 677.261 13.4276L680.055 13.3309L682.85 13.2665C684.75 13.2343 686.538 13.1698 688.439 13.1376C692.127 13.0732 695.816 13.0088 699.616 13.0088C703.305 12.9765 706.994 13.0088 710.794 13.041C714.483 13.1054 718.171 13.1376 721.86 13.2665C725.549 13.3631 729.237 13.492 732.926 13.6209C736.615 13.782 740.303 13.9431 743.88 14.2008C758.411 15.0707 772.607 16.2949 786.691 17.6802C793.733 18.3568 800.663 19.0978 807.594 19.871C814.524 20.612 821.454 21.4174 828.384 22.094C831.849 22.4484 835.426 22.7706 838.891 23.0605C842.468 23.3505 846.045 23.576 849.734 23.7371C856.999 24.0915 864.377 24.2203 871.754 24.2203C879.131 24.2203 886.509 24.0915 893.886 23.8659C901.263 23.6726 908.641 23.4149 915.906 23.1249C930.549 22.545 945.192 21.804 959.835 21.2241L981.855 20.4187C989.232 20.161 996.61 19.9999 1003.99 19.8388C1033.61 19.2267 1063.23 19.0656 1092.74 18.5501C1122.36 18.0669 1151.87 17.4547 1181.38 16.8104C1240.96 15.5861 1300.09 14.2652 1359.33 13.782Z" fill="url(#paint7_linear_1_82516)"/>
<path d="M1359.66 14.587C1300.42 15.5213 1241.29 16.9067 1182.05 17.7765C1152.43 18.1953 1122.81 18.4853 1093.07 18.4853C1063.45 18.4853 1033.72 18.0343 1004.1 18.002C1000.41 18.002 996.721 18.002 993.033 18.002C989.344 18.0343 985.655 18.0665 981.967 18.1309L970.901 18.2598L965.312 18.3242L959.723 18.4209C944.968 18.7108 930.214 19.1296 915.347 19.4196C907.97 19.5807 900.592 19.7095 893.103 19.8062C885.726 19.9029 878.237 19.9029 870.86 19.774C863.482 19.6451 855.993 19.3874 848.728 18.9686C846.939 18.8719 845.039 18.743 843.251 18.6142L837.885 18.1953L827.155 17.3577C820.001 16.81 812.847 16.1979 805.693 15.6502C798.539 15.1025 791.274 14.587 784.12 14.1682C776.855 13.7172 769.589 13.3305 762.323 12.9762C755.058 12.654 747.681 12.364 740.303 12.2029C710.794 11.5908 680.838 12.5896 652.558 15.1025C638.362 16.3267 624.725 18.0343 611.424 19.9351C598.122 21.8359 585.156 23.8978 572.413 26.0563C559.671 28.2149 546.928 30.4379 534.297 32.6608C521.666 34.8838 508.924 37.1068 495.957 39.2009C482.991 41.2628 469.69 43.1959 455.717 44.7101C441.857 46.2565 427.438 47.3841 412.795 48.0929C398.152 48.8339 383.285 49.0916 368.419 48.995C353.553 48.8661 338.798 48.3828 324.267 47.4485C309.736 46.5464 295.54 45.1611 282.35 43.1636C279.109 42.6482 275.867 42.1327 272.737 41.5528C269.608 40.9729 266.59 40.3285 263.572 39.7164C257.536 38.4599 251.611 37.1712 245.687 35.8826C233.839 33.3052 222.102 30.6956 210.142 28.1827C198.182 25.6697 185.998 23.2534 173.367 20.9982C160.736 18.743 147.658 16.7134 134.133 14.9736C120.608 13.2339 106.524 11.8163 92.2165 10.7532C77.7972 9.69001 63.1543 9.04567 48.2878 8.85237C33.5332 8.69128 18.555 9.01345 4.13566 9.91553C18.6668 9.01345 33.5332 8.65906 48.3996 8.82015C63.266 9.01345 77.9089 9.65779 92.3283 10.6887C106.748 11.7519 120.72 13.1695 134.357 14.877C147.994 16.5845 161.071 18.6142 173.702 20.8694C186.333 23.0923 198.629 25.5409 210.589 28.0538C222.549 30.5667 234.398 33.1763 246.246 35.7537C252.17 37.0424 258.094 38.3311 264.13 39.5875C267.148 40.1997 270.166 40.844 273.296 41.4239C276.426 42.0038 279.668 42.5193 282.909 43.0348C295.987 45.0322 310.183 46.3854 324.602 47.2874C339.021 48.1895 353.888 48.705 368.643 48.8016C383.397 48.8983 398.264 48.6406 412.907 47.8996C427.438 47.1586 441.857 46.0632 455.606 44.5168C469.466 43.0026 482.768 41.0695 495.622 39.0076C508.588 36.9457 521.219 34.6905 533.85 32.4675C546.481 30.2446 559.223 28.0216 571.966 25.863C584.709 23.7045 597.675 21.6104 610.977 19.7095C624.278 17.8087 638.027 16.1012 652.222 14.877C680.614 12.364 710.682 11.3653 740.303 11.9774C769.924 12.654 798.987 14.7803 827.378 17.1322L838.109 17.9698L843.474 18.3886C845.263 18.5175 847.051 18.6464 848.839 18.743C856.105 19.1619 863.482 19.4196 870.86 19.5485C885.614 19.8062 900.481 19.484 915.235 19.1941C929.99 18.9041 944.745 18.4853 959.611 18.1953L965.2 18.0987L970.789 18.0343L981.967 17.9054C985.655 17.8732 989.344 17.8087 993.144 17.8087C996.833 17.8087 1000.52 17.8087 1004.32 17.8087C1034.05 17.8409 1063.68 18.3242 1093.3 18.3242C1122.92 18.3564 1152.65 18.0343 1182.27 17.6476C1241.29 16.81 1300.42 15.4569 1359.66 14.587Z" fill="url(#paint8_linear_1_82516)"/>
<path d="M1360.11 15.3931C1300.76 16.7462 1241.51 18.1315 1181.94 18.4859C1152.2 18.647 1122.36 18.5826 1092.74 18.0027C1063.01 17.455 1033.5 16.2952 1003.87 15.6186L998.286 15.4897L992.697 15.4253L981.519 15.2642C977.831 15.1998 974.142 15.1353 970.342 15.1031C966.653 15.0709 962.964 15.0709 959.164 15.0709C944.297 15.0387 929.431 15.1676 914.565 15.232C907.075 15.2642 899.698 15.2964 892.209 15.2964C884.72 15.2642 877.343 15.1998 869.853 15.0065C862.476 14.8132 854.987 14.5232 847.721 14.1044L825.813 12.8801C811.17 12.0747 796.527 11.4304 781.773 11.0115C767.018 10.5927 752.152 10.3672 737.285 10.5605C707.664 10.9149 678.155 12.6546 650.434 15.7475L647.863 16.0374L645.292 16.3596L640.15 16.9717C636.797 17.4228 633.332 17.8416 629.979 18.3248C623.272 19.2591 616.677 20.2257 610.082 21.2244C597.004 23.2541 584.262 25.4448 571.519 27.6678L533.403 34.369C520.66 36.592 507.917 38.7827 494.728 40.7802C481.538 42.7777 468.013 44.5818 453.929 46.0316C439.957 47.4814 425.425 48.5445 410.671 49.2211C395.916 49.8977 381.05 50.1554 366.072 49.9943C351.205 49.8332 336.339 49.2855 321.808 48.2868C307.388 47.2881 293.192 45.7416 280.45 43.5509C273.967 42.4877 268.043 41.1346 262.23 39.8459C256.306 38.525 250.493 37.2041 244.681 35.8832C221.431 30.5351 198.405 25.0904 173.367 20.4512C160.848 18.1315 147.881 16.0052 134.468 14.2011C120.943 12.4291 106.971 10.9149 92.6633 9.81951C78.2439 8.72413 63.6012 8.01535 48.7347 7.82205C33.8683 7.66096 18.8901 8.01535 4.47079 8.94965C19.0019 7.98313 33.8683 7.62874 48.7347 7.78983C63.6012 7.98313 78.3558 8.65969 92.7752 9.75508C107.194 10.8505 121.167 12.3324 134.692 14.1044C148.217 15.8763 161.183 18.0027 173.814 20.3223C198.852 24.9616 221.99 30.4063 245.24 35.7221C251.052 37.043 256.865 38.3961 262.789 39.6848C268.713 40.9735 274.526 42.2944 281.009 43.3576C293.751 45.5483 307.835 47.0625 322.255 48.0613C336.674 49.06 351.54 49.6077 366.295 49.7688C381.162 49.8977 396.028 49.6721 410.671 48.9956C425.314 48.2868 439.733 47.2558 453.705 45.8061C467.677 44.3885 481.202 42.5521 494.392 40.5547C507.47 38.5572 520.325 36.3665 532.956 34.1435L571.295 27.3456C584.038 25.1227 596.781 22.9319 609.859 20.9022C616.454 19.8713 623.048 18.9047 629.755 17.9705C633.108 17.5194 636.462 17.0684 639.927 16.6173L645.069 15.973L647.639 15.6508L650.21 15.3609C678.043 12.2358 707.664 10.5283 737.397 10.1739C752.263 10.0128 767.242 10.2061 781.996 10.6249C796.863 11.0438 811.506 11.6881 826.148 12.5258L848.057 13.75C855.322 14.1688 862.7 14.491 870.077 14.6843C877.454 14.8776 884.943 14.9743 892.321 15.0065C899.698 15.0387 907.187 14.9743 914.565 14.9743C929.431 14.9098 944.297 14.8132 959.164 14.8454C962.852 14.8454 966.653 14.8776 970.342 14.8776C974.03 14.9098 977.719 14.9743 981.519 15.0387L992.697 15.1998L998.286 15.2964L1003.87 15.4253C1033.5 16.1341 1063.01 17.2939 1092.74 17.8416C1122.36 18.4215 1152.2 18.5181 1181.94 18.3571C1241.4 18.0027 1300.76 16.6818 1360.11 15.3931Z" fill="url(#paint9_linear_1_82516)"/>
<path d="M1360.45 16.1659C1330.71 17.0357 1300.98 17.8412 1271.14 18.3889C1241.29 18.9366 1211.45 19.2265 1181.49 19.0976C1151.65 19.001 1121.69 18.4211 1092.07 17.2613C1062.45 16.1015 1033.16 14.2329 1003.65 12.8797C988.897 12.2032 974.03 11.6877 959.164 11.3977C944.298 11.0756 929.319 10.9145 914.453 10.7856C899.475 10.689 884.608 10.5279 869.63 10.1413C865.941 10.0446 862.141 9.91576 858.452 9.78689L847.274 9.40028C839.897 9.14255 832.408 8.88482 825.031 8.69151C810.164 8.30491 795.186 8.14382 780.32 8.17604C765.341 8.24047 750.475 8.49821 735.72 9.11033C706.211 10.3346 677.149 12.6864 650.099 16.327C623.048 19.9353 597.451 24.4779 572.078 28.9883C559.335 31.2435 546.593 33.4987 533.85 35.7217C520.995 37.9447 508.029 40.071 494.728 42.004C488.021 42.9706 481.314 43.8726 474.384 44.7425C467.566 45.6124 460.524 46.3534 453.37 47.0621C439.174 48.4475 424.643 49.4784 409.777 50.155C395.022 50.7993 379.932 51.0249 364.954 50.8638C349.976 50.6705 335.109 50.0906 320.578 48.963C306.159 47.8354 292.187 46.1601 279.667 43.7438C276.538 43.1639 273.52 42.5195 270.613 41.843C267.707 41.1664 264.801 40.4898 261.895 39.8133C256.082 38.4602 250.382 37.0748 244.569 35.6895C221.655 30.1481 198.964 24.5101 174.261 19.7098C149.558 14.8772 122.508 10.9789 93.6694 8.69151C79.25 7.56391 64.4954 6.82292 49.5172 6.62962C34.6507 6.46853 19.5608 6.82291 5.02974 7.82165C19.5608 6.82291 34.539 6.43631 49.5172 6.5974C64.4954 6.7907 79.25 7.53169 93.6694 8.62707C122.508 10.9145 149.67 14.7805 174.485 19.5809C199.299 24.3813 222.102 30.0193 244.905 35.5606C250.605 36.946 256.418 38.3313 262.23 39.6844C265.136 40.361 268.043 41.0375 270.949 41.6819C273.855 42.3584 276.873 43.0028 280.003 43.5827C292.41 45.9668 306.382 47.642 320.802 48.7374C335.221 49.865 350.087 50.4449 364.954 50.606C379.82 50.7671 394.798 50.5416 409.553 49.8973C424.308 49.2207 438.839 48.1897 452.923 46.8044C459.965 46.0956 467.007 45.3546 473.825 44.4848C480.644 43.6471 487.462 42.7128 494.057 41.7463C507.359 39.8133 520.325 37.6547 533.179 35.4318C546.034 33.2088 558.665 30.9536 571.407 28.6661C596.781 24.1235 622.378 19.6131 649.54 15.9726C676.702 12.3643 705.876 9.98019 735.497 8.75594C750.363 8.14382 765.341 7.88608 780.208 7.82165C795.186 7.75721 810.164 7.95052 825.031 8.33712C832.52 8.53042 839.897 8.78817 847.274 9.0459L858.452 9.4325C862.141 9.56137 865.83 9.69024 869.63 9.78689C884.496 10.2057 899.475 10.3346 914.341 10.4635C929.319 10.5923 944.186 10.7534 959.164 11.1078C974.03 11.43 988.897 11.9454 1003.65 12.622C1033.16 13.9751 1062.45 15.8437 1091.96 17.0358C1121.58 18.1956 1151.42 18.7755 1181.27 18.9043C1211.11 19.0654 1241.07 18.7755 1270.91 18.26C1300.98 17.809 1330.71 17.0357 1360.45 16.1659Z" fill="url(#paint10_linear_1_82516)"/>
<path d="M1360.89 16.9715C1331.05 18.0669 1301.09 19.0012 1271.14 19.4844C1256.16 19.7422 1241.07 19.871 1226.09 19.9355C1218.6 19.9355 1211 19.9355 1203.51 19.871C1196.02 19.8388 1188.42 19.7422 1180.93 19.6455C1165.95 19.3878 1150.86 19.0334 1136 18.4535L1130.41 18.2602C1128.51 18.1957 1126.72 18.0991 1124.82 18.0024L1113.64 17.487L1102.57 16.8748L1096.99 16.5849L1091.51 16.2627C1062.11 14.4263 1033.27 11.8812 1003.99 9.88371C989.344 8.88498 974.589 8.07955 959.723 7.49964C944.857 6.88752 929.878 6.50091 914.9 6.21096L869.854 5.43775C862.365 5.30888 854.876 5.24445 847.386 5.1478C839.897 5.01893 832.408 5.01892 824.807 5.05114C809.829 5.11557 794.739 5.37331 779.873 5.88879C765.006 6.40426 750.14 7.11304 735.497 8.11177C706.211 10.077 677.82 13.0732 651.217 17.1004C597.787 25.0902 549.611 35.6897 495.287 43.2929C468.237 47.0945 439.398 49.9296 409.553 51.2183C394.687 51.8627 379.485 52.0882 364.507 51.8627C349.417 51.6372 334.439 50.9928 320.019 49.7686C305.6 48.5443 291.628 46.6757 279.556 44.0983C276.538 43.454 273.632 42.7452 270.725 42.0687C267.819 41.3921 264.913 40.6833 262.119 39.9745C256.418 38.557 250.717 37.1394 245.128 35.7219C222.549 29.9872 200.194 24.1559 175.603 19.1623C163.307 16.6493 150.453 14.3941 137.039 12.4611C123.626 10.5281 109.654 8.88499 95.1226 7.72517C80.7033 6.53313 65.8368 5.75992 50.7468 5.56662C35.7686 5.37331 20.5669 5.75992 6.03576 6.79087C20.6786 5.72771 35.7686 5.34109 50.7468 5.5344C65.8368 5.7277 80.7033 6.50091 95.1226 7.66073C109.654 8.82055 123.626 10.4636 137.151 12.3644C150.676 14.2975 163.531 16.5527 175.826 19.0334C200.529 24.0271 222.885 29.8584 245.464 35.5608C251.164 36.9783 256.753 38.4281 262.454 39.8135C265.36 40.5222 268.155 41.1988 271.061 41.9076C273.967 42.5841 276.873 43.2929 279.891 43.9373C291.963 46.5146 305.824 48.3188 320.243 49.543C334.662 50.7673 349.64 51.4116 364.619 51.6049C379.597 51.7982 394.687 51.5727 409.553 50.9284C424.42 50.284 439.063 49.2209 453.258 47.9C460.412 47.2234 467.454 46.4502 474.384 45.6448C481.315 44.8071 488.133 43.9373 494.951 43.003C522.002 39.2335 547.599 34.6265 573.084 30.0517C598.569 25.4446 623.943 20.7731 650.77 16.7782C677.484 12.751 705.988 9.75484 735.385 7.7896C750.028 6.79087 764.895 6.08209 779.873 5.59883C794.851 5.11558 809.829 4.82562 824.919 4.79341C832.408 4.76119 840.009 4.76118 847.498 4.89005C854.987 4.9867 862.588 5.05114 870.077 5.21222L915.124 6.01765C930.102 6.30761 945.08 6.72643 960.058 7.33856C974.925 7.95068 989.791 8.75611 1004.43 9.75485C1033.72 11.7523 1062.56 14.2975 1091.84 16.1338L1097.32 16.4882L1102.91 16.8104L1113.98 17.4225L1125.15 17.938C1127.05 18.0347 1128.84 18.0991 1130.74 18.1957L1136.33 18.389C1151.2 18.969 1166.18 19.3233 1181.27 19.5811C1188.76 19.6777 1196.24 19.8066 1203.85 19.8388C1211.33 19.9033 1218.82 19.9033 1226.42 19.9033C1241.51 19.871 1256.49 19.7744 1271.47 19.5167C1301.09 18.9367 1331.05 18.0347 1360.89 16.9715Z" fill="url(#paint11_linear_1_82516)"/>
<path d="M1361.23 17.7769C1331.27 19.1301 1301.09 20.1288 1270.8 20.5798C1263.2 20.7087 1255.6 20.7409 1248.11 20.8054H1236.71C1234.81 20.8054 1232.91 20.8054 1231.01 20.8054L1225.31 20.7731C1210.1 20.7087 1195.01 20.4188 1179.92 19.9999L1168.64 19.6455C1164.83 19.5167 1161.15 19.3556 1157.35 19.1945L1151.76 18.969C1149.86 18.8723 1148.07 18.7757 1146.17 18.679L1134.99 18.0991L1123.81 17.4226C1121.91 17.2937 1120.12 17.197 1118.22 17.0682L1112.75 16.6816C1109.06 16.3916 1105.37 16.1661 1101.68 15.8761L1096.2 15.4251L1090.73 14.9418C1061.66 12.3967 1033.38 9.20718 1004.43 6.62981C997.168 5.98547 989.903 5.40555 982.525 4.89008L971.46 4.08465C967.771 3.82691 964.082 3.66582 960.282 3.4403C956.593 3.21478 952.904 3.02148 949.104 2.79596L937.814 2.3127L932.226 2.08719C930.325 2.02276 928.537 1.9261 926.637 1.86167L915.347 1.53949C885.167 0.734065 854.764 0.798501 824.584 1.7328C794.404 2.6671 764.671 4.53569 735.832 7.20972L725.102 8.24067C723.313 8.43397 721.525 8.56283 719.736 8.78835L714.483 9.36827L703.864 10.5603L701.181 10.8503L698.61 11.1724L693.468 11.849L683.073 13.1699C679.608 13.6209 676.255 14.1364 672.901 14.6197L662.73 16.1017L652.781 17.6803L647.863 18.4857L642.945 19.3234L633.109 20.9664C626.625 22.094 620.142 23.2216 613.771 24.3815C600.917 26.7011 588.174 29.0529 575.319 31.3726C549.611 36.0119 523.566 40.5545 496.069 44.2272C468.684 47.9644 439.51 50.7351 409.441 52.1204C394.463 52.7648 379.15 52.9903 363.948 52.7648C348.746 52.5393 333.656 51.7983 319.237 50.4774C304.818 49.1242 290.957 47.1268 279.109 44.3561C267.372 41.5532 256.194 38.6214 245.128 35.6575C222.884 29.7295 200.864 23.7049 176.385 18.5179C164.201 15.9406 151.347 13.5887 137.933 11.5913C124.52 9.59379 110.436 7.88627 95.905 6.66202L90.4279 6.21098C88.6394 6.0499 86.7393 5.95325 84.9509 5.82438C83.0506 5.69551 81.2622 5.56664 79.362 5.46999L73.7731 5.18004L70.9786 5.01895L68.1842 4.9223L62.5953 4.69678C60.6951 4.63235 58.7948 4.60013 56.8946 4.5357L54.1001 4.47126C53.2059 4.43904 52.1999 4.43904 51.3057 4.43904C36.2157 4.24573 20.9022 4.63234 6.25935 5.72772C20.9022 4.63234 36.2157 4.21352 51.3057 4.40682C52.1999 4.40682 53.2059 4.43904 54.1001 4.43904L56.8946 4.50348C58.7948 4.56791 60.6951 4.56791 62.5953 4.63234L68.1842 4.85787L70.9786 4.95451L73.7731 5.1156L79.362 5.40555C81.2622 5.5022 83.0506 5.66329 84.9509 5.75994C86.7393 5.88881 88.6394 5.98547 90.4279 6.14655L95.905 6.59759C110.436 7.82184 124.52 9.49713 138.045 11.4946C151.57 13.4921 164.425 15.8439 176.72 18.4213C201.2 23.576 223.332 29.6329 245.575 35.5286C256.753 38.4926 267.931 41.4243 279.556 44.2272C291.292 46.9657 305.041 48.9631 319.46 50.3163C333.88 51.6372 348.97 52.3782 364.06 52.6037C379.15 52.8292 394.351 52.6037 409.33 51.9593C439.174 50.574 468.236 47.8033 495.622 44.0661C523.119 40.3934 549.052 35.8508 574.761 31.2115C587.615 28.8919 600.358 26.5078 613.212 24.2204C619.583 23.0606 626.178 21.933 632.55 20.7731L642.386 19.0978L647.304 18.2602L652.222 17.4548L662.171 15.8761L672.342 14.3941C675.696 13.9109 679.049 13.3954 682.514 12.9444L692.91 11.6235L698.163 10.9469L700.734 10.6247L703.417 10.3348L714.036 9.14274L719.289 8.56284C721.078 8.36954 722.866 8.20845 724.654 8.01514L735.497 6.98419C764.447 4.31017 794.292 2.47379 824.472 1.53949C854.652 0.605196 885.167 0.540762 915.347 1.37841L926.637 1.70058C928.537 1.7328 930.437 1.82945 932.226 1.9261L937.814 2.18384L949.104 2.66709C952.793 2.8604 956.593 3.08592 960.282 3.31144C963.97 3.53696 967.771 3.73026 971.46 3.95578L982.525 4.76121C989.903 5.27668 997.168 5.85659 1004.43 6.53315C1033.38 9.11053 1061.66 12.3322 1090.73 14.8774L1096.2 15.3607L1101.68 15.8117C1105.37 16.1017 1109.06 16.3594 1112.63 16.6171L1118.11 17.0359C1119.9 17.1648 1121.8 17.2615 1123.7 17.3903L1134.77 18.0669L1145.94 18.6468C1147.84 18.7435 1149.63 18.8401 1151.53 18.9368L1157.12 19.1623C1160.92 19.3234 1164.61 19.4845 1168.41 19.6133L1179.7 19.9677C1194.79 20.3865 1209.88 20.7087 1225.08 20.7731L1230.78 20.8054C1232.68 20.8054 1234.58 20.8054 1236.48 20.8054H1247.89C1255.49 20.7409 1263.09 20.7087 1270.58 20.5798C1301.09 20.0966 1331.27 19.0978 1361.23 17.7769Z" fill="url(#paint12_linear_1_82516)"/>
<defs>
<linearGradient id="paint0_linear_1_82516" x1="1356.33" y1="34.0457" x2="-0.325204" y2="34.0457" gradientUnits="userSpaceOnUse">
<stop stop-color="#3DDEED"/>
<stop offset="0.9966" stop-color="#CB00DD"/>
</linearGradient>
<linearGradient id="paint1_linear_1_82516" x1="1356.71" y1="32.2225" x2="0.174886" y2="32.2225" gradientUnits="userSpaceOnUse">
<stop stop-color="#3DDEED"/>
<stop offset="0.9966" stop-color="#CB00DD"/>
</linearGradient>
<linearGradient id="paint2_linear_1_82516" x1="1357.08" y1="30.3987" x2="0.674518" y2="30.3987" gradientUnits="userSpaceOnUse">
<stop stop-color="#3DDEED"/>
<stop offset="0.9966" stop-color="#CB00DD"/>
</linearGradient>
<linearGradient id="paint3_linear_1_82516" x1="1357.46" y1="28.5671" x2="1.17449" y2="28.5671" gradientUnits="userSpaceOnUse">
<stop stop-color="#3DDEED"/>
<stop offset="0.9966" stop-color="#CB00DD"/>
</linearGradient>
<linearGradient id="paint4_linear_1_82516" x1="1357.83" y1="27.5599" x2="1.67447" y2="27.5599" gradientUnits="userSpaceOnUse">
<stop stop-color="#3DDEED"/>
<stop offset="0.9966" stop-color="#CB00DD"/>
</linearGradient>
<linearGradient id="paint5_linear_1_82516" x1="1358.58" y1="29.2993" x2="2.67406" y2="29.2993" gradientUnits="userSpaceOnUse">
<stop stop-color="#3DDEED"/>
<stop offset="0.9966" stop-color="#CB00DD"/>
</linearGradient>
<linearGradient id="paint6_linear_1_82516" x1="1358.96" y1="29.1833" x2="3.17431" y2="29.1833" gradientUnits="userSpaceOnUse">
<stop stop-color="#3DDEED"/>
<stop offset="0.9966" stop-color="#CB00DD"/>
</linearGradient>
<linearGradient id="paint7_linear_1_82516" x1="1359.34" y1="29.0515" x2="3.6742" y2="29.0515" gradientUnits="userSpaceOnUse">
<stop stop-color="#3DDEED"/>
<stop offset="0.9966" stop-color="#CB00DD"/>
</linearGradient>
<linearGradient id="paint8_linear_1_82516" x1="1359.71" y1="28.9294" x2="4.17415" y2="28.9294" gradientUnits="userSpaceOnUse">
<stop stop-color="#3DDEED"/>
<stop offset="0.9966" stop-color="#CB00DD"/>
</linearGradient>
<linearGradient id="paint9_linear_1_82516" x1="1360.09" y1="28.8223" x2="4.67405" y2="28.8223" gradientUnits="userSpaceOnUse">
<stop stop-color="#3DDEED"/>
<stop offset="0.9966" stop-color="#CB00DD"/>
</linearGradient>
<linearGradient id="paint10_linear_1_82516" x1="1360.46" y1="28.7264" x2="5.17414" y2="28.7264" gradientUnits="userSpaceOnUse">
<stop stop-color="#3DDEED"/>
<stop offset="0.9966" stop-color="#CB00DD"/>
</linearGradient>
<linearGradient id="paint11_linear_1_82516" x1="1360.84" y1="28.3041" x2="5.67394" y2="28.3041" gradientUnits="userSpaceOnUse">
<stop stop-color="#3DDEED"/>
<stop offset="0.9966" stop-color="#CB00DD"/>
</linearGradient>
<linearGradient id="paint12_linear_1_82516" x1="1361.21" y1="26.7727" x2="6.17412" y2="26.7727" gradientUnits="userSpaceOnUse">
<stop stop-color="#3DDEED"/>
<stop offset="0.9966" stop-color="#CB00DD"/>
</linearGradient>
</defs>
</svg>
