<svg width="15" height="16" viewBox="0 0 15 16" fill="none" xmlns="http://www.w3.org/2000/svg">
<path d="M7.5 0.791992C3.35788 0.791992 0 4.14987 0 8.29199C0 12.4341 3.35788 15.792 7.5 15.792C11.6421 15.792 15 12.4341 15 8.29199C15 4.14987 11.6421 0.791992 7.5 0.791992ZM7.5 2.42163C10.7421 2.42163 13.3695 5.05069 13.3695 8.29199C13.3695 11.5333 10.7421 14.1614 7.5 14.1614C4.25788 14.1614 1.63055 11.5333 1.63055 8.29199C1.63056 5.05069 4.25788 2.42163 7.5 2.42163ZM10.3738 4.73059L6.02691 9.07843L4.617 7.66852L3.23364 9.05097L4.64355 10.4609L6.03606 11.8534L7.41853 10.47L11.7663 6.1231L10.3738 4.73059V4.73059Z" fill="url(#paint0_linear_1_82553)"/>
<defs>
<linearGradient id="paint0_linear_1_82553" x1="7.5" y1="0.791992" x2="7.5" y2="15.792" gradientUnits="userSpaceOnUse">
<stop stop-color="#614CFF"/>
<stop offset="1" stop-color="#A556FE"/>
</linearGradient>
</defs>
</svg>
